<svg version="1.1" viewBox="0.0 0.0 300.0 300.0" fill="none" stroke="none" stroke-linecap="square" stroke-miterlimit="10" xmlns:xlink="http://www.w3.org/1999/xlink" xmlns="http://www.w3.org/2000/svg"><clipPath id="p.0"><path d="m0 0l300.0 0l0 300.0l-300.0 0l0 -300.0z" clip-rule="nonzero"/></clipPath><g clip-path="url(#p.0)"><path fill="#000000" fill-opacity="0.0" d="m0 0l300.0 0l0 300.0l-300.0 0z" fill-rule="evenodd"/><path fill="#000000" fill-opacity="0.0" d="m24.632545 269.30698c21.805775 -39.522766 90.204285 -237.3924 130.83466 -237.1365c40.630356 0.25590897 94.122925 198.89328 112.94751 238.67194" fill-rule="evenodd"/><path stroke="#03a9f4" stroke-width="24.0" stroke-linejoin="round" stroke-linecap="butt" d="m24.632545 269.30698c21.805775 -39.522766 90.204285 -237.3924 130.83466 -237.1365c40.630356 0.25590897 94.122925 198.89328 112.94751 238.67194" fill-rule="evenodd"/><path fill="#000000" fill-opacity="0.0" d="m22.078741 147.16226c33.730972 1.4479523 177.3434 -12.010498 202.38583 8.687668c25.042435 20.698166 -43.442703 96.2511 -52.13124 115.5013" fill-rule="evenodd"/><path stroke="#03a9f4" stroke-width="24.0" stroke-linejoin="round" stroke-linecap="butt" d="m22.078741 147.16226c33.730972 1.4479523 177.3434 -12.010498 202.38583 8.687668c25.042435 20.698166 -43.442703 96.2511 -52.13124 115.5013" fill-rule="evenodd"/><path fill="#000000" fill-opacity="0.0" d="m166.20166 147.67192c0.8517151 6.899826 -2.5555573 31.0923 5.1102448 41.39894c7.6657867 10.306656 34.07042 17.034119 40.884506 20.440948" fill-rule="evenodd"/><path stroke="#03a9f4" stroke-width="24.0" stroke-linejoin="round" stroke-linecap="butt" d="m166.20166 147.67192c0.8517151 6.899826 -2.5555573 31.0923 5.1102448 41.39894c7.6657867 10.306656 34.07042 17.034119 40.884506 20.440948" fill-rule="evenodd"/></g></svg>